<?xml version="1.0" encoding="UTF-8"?>
<svg width="512" height="512" viewBox="0 0 512 512" fill="none" xmlns="http://www.w3.org/2000/svg">
  <!-- Fondo circular -->
  <circle cx="256" cy="256" r="256" fill="#2563EB"/>
  
  <!-- Casa estilizada -->
  <path d="M256 96L96 224H144V384H368V224H416L256 96Z" fill="white"/>
  
  <!-- Herramienta (llave inglesa) -->
  <path d="M288 288C288 270.327 302.327 256 320 256C337.673 256 352 270.327 352 288C352 305.673 337.673 320 320 320C302.327 320 288 305.673 288 288ZM320 272C311.163 272 304 279.163 304 288C304 296.837 311.163 304 320 304C328.837 304 336 296.837 336 288C336 279.163 328.837 272 320 272Z" fill="#2563EB"/>
  
  <!-- Texto "SH" -->
  <path d="M208 288C208 270.327 222.327 256 240 256C257.673 256 272 270.327 272 288C272 305.673 257.673 320 240 320C222.327 320 208 305.673 208 288ZM240 272C231.163 272 224 279.163 224 288C224 296.837 231.163 304 240 304C248.837 304 256 296.837 256 288C256 279.163 248.837 272 240 272Z" fill="#2563EB"/>
</svg>
